<mxfile host="app.diagrams.net" modified="2024-01-19T23:10:30.899Z" agent="Mozilla/5.0 (Windows NT 10.0; Win64; x64) AppleWebKit/537.36 (KHTML, like Gecko) Chrome/120.0.0.0 Safari/537.36" etag="VLbUyAHoVH3_n8IOFsRk" version="22.1.21" type="device">
  <diagram id="R2lEEEUBdFMjLlhIrx00" name="Page-1">
    <mxGraphModel dx="794" dy="507" grid="1" gridSize="10" guides="1" tooltips="1" connect="1" arrows="1" fold="1" page="1" pageScale="1" pageWidth="850" pageHeight="1100" math="0" shadow="0" extFonts="Permanent Marker^https://fonts.googleapis.com/css?family=Permanent+Marker">
      <root>
        <mxCell id="0" />
        <mxCell id="1" parent="0" />
        <mxCell id="fSCc1zrQL3JDsU1CtgY6-9" style="edgeStyle=orthogonalEdgeStyle;rounded=0;orthogonalLoop=1;jettySize=auto;html=1;exitX=0;exitY=0.5;exitDx=0;exitDy=0;" parent="1" source="fSCc1zrQL3JDsU1CtgY6-1" target="fSCc1zrQL3JDsU1CtgY6-8" edge="1">
          <mxGeometry relative="1" as="geometry" />
        </mxCell>
        <mxCell id="fSCc1zrQL3JDsU1CtgY6-12" style="edgeStyle=orthogonalEdgeStyle;rounded=0;orthogonalLoop=1;jettySize=auto;html=1;entryX=1;entryY=0.5;entryDx=0;entryDy=0;" parent="1" source="fSCc1zrQL3JDsU1CtgY6-1" target="fSCc1zrQL3JDsU1CtgY6-10" edge="1">
          <mxGeometry relative="1" as="geometry" />
        </mxCell>
        <mxCell id="fSCc1zrQL3JDsU1CtgY6-14" style="edgeStyle=orthogonalEdgeStyle;rounded=0;orthogonalLoop=1;jettySize=auto;html=1;exitX=0.5;exitY=1;exitDx=0;exitDy=0;entryX=1;entryY=0.5;entryDx=0;entryDy=0;" parent="1" source="fSCc1zrQL3JDsU1CtgY6-1" target="fSCc1zrQL3JDsU1CtgY6-13" edge="1">
          <mxGeometry relative="1" as="geometry" />
        </mxCell>
        <mxCell id="fSCc1zrQL3JDsU1CtgY6-16" value="" style="edgeStyle=orthogonalEdgeStyle;rounded=0;orthogonalLoop=1;jettySize=auto;html=1;" parent="1" source="fSCc1zrQL3JDsU1CtgY6-1" target="fSCc1zrQL3JDsU1CtgY6-15" edge="1">
          <mxGeometry relative="1" as="geometry" />
        </mxCell>
        <mxCell id="fSCc1zrQL3JDsU1CtgY6-1" value="&lt;b&gt;&lt;font style=&quot;font-size: 24px;&quot;&gt;manufacturer&lt;/font&gt;&lt;/b&gt;" style="rounded=0;whiteSpace=wrap;html=1;" parent="1" vertex="1">
          <mxGeometry x="200" y="190" width="180" height="60" as="geometry" />
        </mxCell>
        <mxCell id="fSCc1zrQL3JDsU1CtgY6-39" style="edgeStyle=orthogonalEdgeStyle;rounded=0;orthogonalLoop=1;jettySize=auto;html=1;exitX=1;exitY=0.5;exitDx=0;exitDy=0;entryX=0;entryY=0.5;entryDx=0;entryDy=0;" parent="1" source="fSCc1zrQL3JDsU1CtgY6-3" target="fSCc1zrQL3JDsU1CtgY6-36" edge="1">
          <mxGeometry relative="1" as="geometry" />
        </mxCell>
        <mxCell id="fSCc1zrQL3JDsU1CtgY6-42" style="edgeStyle=orthogonalEdgeStyle;rounded=0;orthogonalLoop=1;jettySize=auto;html=1;exitX=0;exitY=0.5;exitDx=0;exitDy=0;entryX=1;entryY=0.5;entryDx=0;entryDy=0;" parent="1" source="fSCc1zrQL3JDsU1CtgY6-3" target="fSCc1zrQL3JDsU1CtgY6-41" edge="1">
          <mxGeometry relative="1" as="geometry" />
        </mxCell>
        <mxCell id="fSCc1zrQL3JDsU1CtgY6-44" style="edgeStyle=orthogonalEdgeStyle;rounded=0;orthogonalLoop=1;jettySize=auto;html=1;exitX=0.5;exitY=1;exitDx=0;exitDy=0;entryX=1;entryY=0.5;entryDx=0;entryDy=0;" parent="1" source="fSCc1zrQL3JDsU1CtgY6-3" target="fSCc1zrQL3JDsU1CtgY6-43" edge="1">
          <mxGeometry relative="1" as="geometry" />
        </mxCell>
        <mxCell id="fSCc1zrQL3JDsU1CtgY6-46" style="edgeStyle=orthogonalEdgeStyle;rounded=0;orthogonalLoop=1;jettySize=auto;html=1;exitX=0.5;exitY=1;exitDx=0;exitDy=0;entryX=1;entryY=0.5;entryDx=0;entryDy=0;" parent="1" source="fSCc1zrQL3JDsU1CtgY6-3" target="fSCc1zrQL3JDsU1CtgY6-45" edge="1">
          <mxGeometry relative="1" as="geometry" />
        </mxCell>
        <mxCell id="fSCc1zrQL3JDsU1CtgY6-48" style="edgeStyle=orthogonalEdgeStyle;rounded=0;orthogonalLoop=1;jettySize=auto;html=1;exitX=0.5;exitY=1;exitDx=0;exitDy=0;entryX=1;entryY=0.5;entryDx=0;entryDy=0;" parent="1" source="fSCc1zrQL3JDsU1CtgY6-3" target="fSCc1zrQL3JDsU1CtgY6-47" edge="1">
          <mxGeometry relative="1" as="geometry" />
        </mxCell>
        <mxCell id="fSCc1zrQL3JDsU1CtgY6-50" style="edgeStyle=orthogonalEdgeStyle;rounded=0;orthogonalLoop=1;jettySize=auto;html=1;exitX=0.5;exitY=1;exitDx=0;exitDy=0;entryX=1;entryY=0.5;entryDx=0;entryDy=0;" parent="1" source="fSCc1zrQL3JDsU1CtgY6-3" target="fSCc1zrQL3JDsU1CtgY6-49" edge="1">
          <mxGeometry relative="1" as="geometry" />
        </mxCell>
        <mxCell id="fSCc1zrQL3JDsU1CtgY6-52" style="edgeStyle=orthogonalEdgeStyle;rounded=0;orthogonalLoop=1;jettySize=auto;html=1;exitX=0.5;exitY=1;exitDx=0;exitDy=0;entryX=1;entryY=0.5;entryDx=0;entryDy=0;" parent="1" source="fSCc1zrQL3JDsU1CtgY6-3" target="fSCc1zrQL3JDsU1CtgY6-51" edge="1">
          <mxGeometry relative="1" as="geometry" />
        </mxCell>
        <mxCell id="fSCc1zrQL3JDsU1CtgY6-71" style="edgeStyle=orthogonalEdgeStyle;rounded=0;orthogonalLoop=1;jettySize=auto;html=1;exitX=0.5;exitY=1;exitDx=0;exitDy=0;entryX=1;entryY=0.5;entryDx=0;entryDy=0;" parent="1" source="fSCc1zrQL3JDsU1CtgY6-3" target="fSCc1zrQL3JDsU1CtgY6-69" edge="1">
          <mxGeometry relative="1" as="geometry" />
        </mxCell>
        <mxCell id="fpTIzd-TrJ-mVMYmcjgI-2" style="edgeStyle=orthogonalEdgeStyle;rounded=0;orthogonalLoop=1;jettySize=auto;html=1;exitX=0.75;exitY=1;exitDx=0;exitDy=0;entryX=0;entryY=0.5;entryDx=0;entryDy=0;" edge="1" parent="1" source="fSCc1zrQL3JDsU1CtgY6-3" target="fSCc1zrQL3JDsU1CtgY6-53">
          <mxGeometry relative="1" as="geometry" />
        </mxCell>
        <mxCell id="fSCc1zrQL3JDsU1CtgY6-3" value="&lt;b&gt;&lt;font style=&quot;font-size: 24px;&quot;&gt;parts&lt;/font&gt;&lt;/b&gt;" style="rounded=0;whiteSpace=wrap;html=1;" parent="1" vertex="1">
          <mxGeometry x="160" y="490" width="180" height="60" as="geometry" />
        </mxCell>
        <mxCell id="fSCc1zrQL3JDsU1CtgY6-19" style="edgeStyle=orthogonalEdgeStyle;rounded=0;orthogonalLoop=1;jettySize=auto;html=1;exitX=0.5;exitY=0;exitDx=0;exitDy=0;" parent="1" source="fSCc1zrQL3JDsU1CtgY6-4" target="fSCc1zrQL3JDsU1CtgY6-18" edge="1">
          <mxGeometry relative="1" as="geometry" />
        </mxCell>
        <mxCell id="fSCc1zrQL3JDsU1CtgY6-21" style="edgeStyle=orthogonalEdgeStyle;rounded=0;orthogonalLoop=1;jettySize=auto;html=1;exitX=0.5;exitY=1;exitDx=0;exitDy=0;" parent="1" source="fSCc1zrQL3JDsU1CtgY6-4" target="fSCc1zrQL3JDsU1CtgY6-20" edge="1">
          <mxGeometry relative="1" as="geometry">
            <Array as="points">
              <mxPoint x="680" y="250" />
              <mxPoint x="680" y="310" />
              <mxPoint x="780" y="310" />
            </Array>
          </mxGeometry>
        </mxCell>
        <mxCell id="fSCc1zrQL3JDsU1CtgY6-23" style="edgeStyle=orthogonalEdgeStyle;rounded=0;orthogonalLoop=1;jettySize=auto;html=1;exitX=0.5;exitY=1;exitDx=0;exitDy=0;entryX=0;entryY=0.5;entryDx=0;entryDy=0;" parent="1" source="fSCc1zrQL3JDsU1CtgY6-4" target="fSCc1zrQL3JDsU1CtgY6-22" edge="1">
          <mxGeometry relative="1" as="geometry">
            <Array as="points">
              <mxPoint x="680" y="250" />
              <mxPoint x="680" y="435" />
            </Array>
          </mxGeometry>
        </mxCell>
        <mxCell id="fSCc1zrQL3JDsU1CtgY6-25" style="edgeStyle=orthogonalEdgeStyle;rounded=0;orthogonalLoop=1;jettySize=auto;html=1;exitX=0.5;exitY=1;exitDx=0;exitDy=0;entryX=0;entryY=0.5;entryDx=0;entryDy=0;" parent="1" source="fSCc1zrQL3JDsU1CtgY6-4" target="fSCc1zrQL3JDsU1CtgY6-24" edge="1">
          <mxGeometry relative="1" as="geometry">
            <Array as="points">
              <mxPoint x="680" y="250" />
              <mxPoint x="680" y="515" />
            </Array>
          </mxGeometry>
        </mxCell>
        <mxCell id="fSCc1zrQL3JDsU1CtgY6-31" style="edgeStyle=orthogonalEdgeStyle;rounded=0;orthogonalLoop=1;jettySize=auto;html=1;exitX=0.5;exitY=1;exitDx=0;exitDy=0;entryX=0;entryY=0.5;entryDx=0;entryDy=0;" parent="1" source="fSCc1zrQL3JDsU1CtgY6-4" target="fSCc1zrQL3JDsU1CtgY6-30" edge="1">
          <mxGeometry relative="1" as="geometry">
            <Array as="points">
              <mxPoint x="680" y="250" />
              <mxPoint x="680" y="750" />
            </Array>
          </mxGeometry>
        </mxCell>
        <mxCell id="fSCc1zrQL3JDsU1CtgY6-65" value="" style="edgeStyle=orthogonalEdgeStyle;rounded=0;orthogonalLoop=1;jettySize=auto;html=1;" parent="1" source="fSCc1zrQL3JDsU1CtgY6-4" target="fSCc1zrQL3JDsU1CtgY6-64" edge="1">
          <mxGeometry relative="1" as="geometry" />
        </mxCell>
        <mxCell id="fSCc1zrQL3JDsU1CtgY6-74" style="edgeStyle=orthogonalEdgeStyle;rounded=0;orthogonalLoop=1;jettySize=auto;html=1;exitX=1;exitY=1;exitDx=0;exitDy=0;" parent="1" source="fSCc1zrQL3JDsU1CtgY6-4" target="fSCc1zrQL3JDsU1CtgY6-73" edge="1">
          <mxGeometry relative="1" as="geometry" />
        </mxCell>
        <mxCell id="fSCc1zrQL3JDsU1CtgY6-4" value="&lt;b&gt;&lt;font style=&quot;font-size: 24px;&quot;&gt;assemblies&lt;/font&gt;&lt;/b&gt;" style="rounded=0;whiteSpace=wrap;html=1;" parent="1" vertex="1">
          <mxGeometry x="550" y="190" width="170" height="60" as="geometry" />
        </mxCell>
        <mxCell id="fSCc1zrQL3JDsU1CtgY6-59" style="edgeStyle=orthogonalEdgeStyle;rounded=0;orthogonalLoop=1;jettySize=auto;html=1;exitX=0.5;exitY=1;exitDx=0;exitDy=0;entryX=0;entryY=0.5;entryDx=0;entryDy=0;" parent="1" source="fSCc1zrQL3JDsU1CtgY6-5" target="fSCc1zrQL3JDsU1CtgY6-57" edge="1">
          <mxGeometry relative="1" as="geometry">
            <Array as="points">
              <mxPoint x="560" y="910" />
            </Array>
          </mxGeometry>
        </mxCell>
        <mxCell id="fSCc1zrQL3JDsU1CtgY6-72" style="edgeStyle=orthogonalEdgeStyle;rounded=0;orthogonalLoop=1;jettySize=auto;html=1;exitX=0.5;exitY=1;exitDx=0;exitDy=0;entryX=1;entryY=0.5;entryDx=0;entryDy=0;" parent="1" source="fSCc1zrQL3JDsU1CtgY6-5" target="fSCc1zrQL3JDsU1CtgY6-56" edge="1">
          <mxGeometry relative="1" as="geometry" />
        </mxCell>
        <mxCell id="fSCc1zrQL3JDsU1CtgY6-5" value="&lt;b&gt;&lt;font style=&quot;font-size: 24px;&quot;&gt;kits&lt;/font&gt;&lt;/b&gt;" style="rounded=0;whiteSpace=wrap;html=1;" parent="1" vertex="1">
          <mxGeometry x="470" y="680" width="180" height="60" as="geometry" />
        </mxCell>
        <mxCell id="fSCc1zrQL3JDsU1CtgY6-8" value="&lt;b&gt;&lt;font style=&quot;font-size: 14px;&quot;&gt;&lt;u&gt;manufacturer_id&lt;/u&gt;&lt;/font&gt;&lt;/b&gt;" style="ellipse;whiteSpace=wrap;html=1;" parent="1" vertex="1">
          <mxGeometry x="30" y="180" width="120" height="80" as="geometry" />
        </mxCell>
        <mxCell id="fSCc1zrQL3JDsU1CtgY6-10" value="&lt;span style=&quot;font-size: 14px;&quot;&gt;&lt;b&gt;name&lt;/b&gt;&lt;/span&gt;" style="ellipse;whiteSpace=wrap;html=1;" parent="1" vertex="1">
          <mxGeometry x="30" y="280" width="120" height="80" as="geometry" />
        </mxCell>
        <mxCell id="fSCc1zrQL3JDsU1CtgY6-13" value="&lt;span style=&quot;font-size: 14px;&quot;&gt;&lt;b&gt;description&lt;/b&gt;&lt;/span&gt;" style="ellipse;whiteSpace=wrap;html=1;" parent="1" vertex="1">
          <mxGeometry x="30" y="370" width="120" height="80" as="geometry" />
        </mxCell>
        <mxCell id="fSCc1zrQL3JDsU1CtgY6-38" style="edgeStyle=orthogonalEdgeStyle;rounded=0;orthogonalLoop=1;jettySize=auto;html=1;exitX=1;exitY=0.5;exitDx=0;exitDy=0;entryX=0;entryY=0.75;entryDx=0;entryDy=0;" parent="1" source="fSCc1zrQL3JDsU1CtgY6-15" target="fSCc1zrQL3JDsU1CtgY6-4" edge="1">
          <mxGeometry relative="1" as="geometry" />
        </mxCell>
        <mxCell id="fSCc1zrQL3JDsU1CtgY6-15" value="&lt;b&gt;&lt;font style=&quot;font-size: 18px;&quot;&gt;fabrica&lt;/font&gt;&lt;/b&gt;" style="rhombus;whiteSpace=wrap;html=1;rounded=0;" parent="1" vertex="1">
          <mxGeometry x="425" y="300" width="80" height="80" as="geometry" />
        </mxCell>
        <mxCell id="fSCc1zrQL3JDsU1CtgY6-18" value="&lt;u&gt;&lt;b&gt;&lt;font style=&quot;font-size: 14px;&quot;&gt;assembly_id&lt;/font&gt;&lt;/b&gt;&lt;/u&gt;" style="ellipse;whiteSpace=wrap;html=1;" parent="1" vertex="1">
          <mxGeometry x="730" y="140" width="100" height="60" as="geometry" />
        </mxCell>
        <mxCell id="fSCc1zrQL3JDsU1CtgY6-20" value="&lt;font style=&quot;font-size: 14px;&quot;&gt;&lt;b&gt;name&lt;/b&gt;&lt;/font&gt;" style="ellipse;whiteSpace=wrap;html=1;" parent="1" vertex="1">
          <mxGeometry x="735" y="330" width="90" height="50" as="geometry" />
        </mxCell>
        <mxCell id="fSCc1zrQL3JDsU1CtgY6-22" value="&lt;font style=&quot;font-size: 14px;&quot;&gt;&lt;b&gt;description&lt;/b&gt;&lt;/font&gt;" style="ellipse;whiteSpace=wrap;html=1;" parent="1" vertex="1">
          <mxGeometry x="735" y="410" width="90" height="50" as="geometry" />
        </mxCell>
        <mxCell id="fSCc1zrQL3JDsU1CtgY6-24" value="&lt;font style=&quot;font-size: 14px;&quot;&gt;&lt;b&gt;isTopLevel&lt;/b&gt;&lt;/font&gt;" style="ellipse;whiteSpace=wrap;html=1;" parent="1" vertex="1">
          <mxGeometry x="735" y="490" width="90" height="50" as="geometry" />
        </mxCell>
        <mxCell id="fSCc1zrQL3JDsU1CtgY6-26" value="&lt;font style=&quot;font-size: 14px;&quot;&gt;&lt;b&gt;photo&lt;/b&gt;&lt;/font&gt;" style="ellipse;whiteSpace=wrap;html=1;" parent="1" vertex="1">
          <mxGeometry x="735" y="560" width="90" height="50" as="geometry" />
        </mxCell>
        <mxCell id="fSCc1zrQL3JDsU1CtgY6-27" style="edgeStyle=orthogonalEdgeStyle;rounded=0;orthogonalLoop=1;jettySize=auto;html=1;exitX=0.5;exitY=1;exitDx=0;exitDy=0;entryX=-0.004;entryY=0.693;entryDx=0;entryDy=0;entryPerimeter=0;" parent="1" source="fSCc1zrQL3JDsU1CtgY6-4" target="fSCc1zrQL3JDsU1CtgY6-26" edge="1">
          <mxGeometry relative="1" as="geometry">
            <Array as="points">
              <mxPoint x="680" y="250" />
              <mxPoint x="680" y="595" />
            </Array>
          </mxGeometry>
        </mxCell>
        <mxCell id="fSCc1zrQL3JDsU1CtgY6-28" value="&lt;span style=&quot;font-size: 14px;&quot;&gt;&lt;u&gt;&lt;b&gt;manufacturer&lt;/b&gt;&lt;/u&gt;&lt;/span&gt;" style="ellipse;whiteSpace=wrap;html=1;" parent="1" vertex="1">
          <mxGeometry x="722.5" y="630" width="115" height="70" as="geometry" />
        </mxCell>
        <mxCell id="fSCc1zrQL3JDsU1CtgY6-29" style="edgeStyle=orthogonalEdgeStyle;rounded=0;orthogonalLoop=1;jettySize=auto;html=1;exitX=0.5;exitY=1;exitDx=0;exitDy=0;entryX=0.001;entryY=0.629;entryDx=0;entryDy=0;entryPerimeter=0;" parent="1" source="fSCc1zrQL3JDsU1CtgY6-4" target="fSCc1zrQL3JDsU1CtgY6-28" edge="1">
          <mxGeometry relative="1" as="geometry">
            <Array as="points">
              <mxPoint x="680" y="250" />
              <mxPoint x="680" y="674" />
            </Array>
          </mxGeometry>
        </mxCell>
        <mxCell id="fSCc1zrQL3JDsU1CtgY6-30" value="&lt;font style=&quot;font-size: 14px;&quot;&gt;&lt;b&gt;assembly_parent_id&lt;/b&gt;&lt;/font&gt;" style="ellipse;whiteSpace=wrap;html=1;" parent="1" vertex="1">
          <mxGeometry x="710" y="710" width="137.5" height="80" as="geometry" />
        </mxCell>
        <mxCell id="fSCc1zrQL3JDsU1CtgY6-40" style="edgeStyle=orthogonalEdgeStyle;rounded=0;orthogonalLoop=1;jettySize=auto;html=1;exitX=1;exitY=0.5;exitDx=0;exitDy=0;" parent="1" source="fSCc1zrQL3JDsU1CtgY6-36" edge="1">
          <mxGeometry relative="1" as="geometry">
            <mxPoint x="639.9999999999998" y="250" as="targetPoint" />
          </mxGeometry>
        </mxCell>
        <mxCell id="fSCc1zrQL3JDsU1CtgY6-36" value="&lt;b&gt;&lt;font style=&quot;font-size: 18px;&quot;&gt;pertenece&lt;/font&gt;&lt;/b&gt;" style="rhombus;whiteSpace=wrap;html=1;rounded=0;" parent="1" vertex="1">
          <mxGeometry x="420" y="410" width="110" height="90" as="geometry" />
        </mxCell>
        <mxCell id="fSCc1zrQL3JDsU1CtgY6-41" value="&lt;font style=&quot;font-size: 14px;&quot;&gt;&lt;b&gt;&lt;u&gt;part_id&lt;/u&gt;&lt;/b&gt;&lt;/font&gt;" style="ellipse;whiteSpace=wrap;html=1;" parent="1" vertex="1">
          <mxGeometry x="40" y="480" width="90" height="70" as="geometry" />
        </mxCell>
        <mxCell id="fSCc1zrQL3JDsU1CtgY6-43" value="&lt;font style=&quot;font-size: 14px;&quot;&gt;&lt;b&gt;name&lt;/b&gt;&lt;/font&gt;" style="ellipse;whiteSpace=wrap;html=1;" parent="1" vertex="1">
          <mxGeometry x="40" y="650" width="90" height="70" as="geometry" />
        </mxCell>
        <mxCell id="fSCc1zrQL3JDsU1CtgY6-45" value="&lt;font style=&quot;font-size: 14px;&quot;&gt;&lt;b&gt;description&lt;/b&gt;&lt;/font&gt;" style="ellipse;whiteSpace=wrap;html=1;" parent="1" vertex="1">
          <mxGeometry x="40" y="730" width="90" height="70" as="geometry" />
        </mxCell>
        <mxCell id="fSCc1zrQL3JDsU1CtgY6-47" value="&lt;font style=&quot;font-size: 14px;&quot;&gt;&lt;b&gt;price&lt;/b&gt;&lt;/font&gt;" style="ellipse;whiteSpace=wrap;html=1;" parent="1" vertex="1">
          <mxGeometry x="45" y="810" width="90" height="70" as="geometry" />
        </mxCell>
        <mxCell id="fSCc1zrQL3JDsU1CtgY6-49" value="&lt;font style=&quot;font-size: 14px;&quot;&gt;&lt;b&gt;isKit&lt;/b&gt;&lt;/font&gt;" style="ellipse;whiteSpace=wrap;html=1;" parent="1" vertex="1">
          <mxGeometry x="45" y="890" width="90" height="70" as="geometry" />
        </mxCell>
        <mxCell id="fSCc1zrQL3JDsU1CtgY6-51" value="&lt;font style=&quot;font-size: 14px;&quot;&gt;&lt;b&gt;&lt;u&gt;assemblies&lt;/u&gt;&lt;/b&gt;&lt;/font&gt;" style="ellipse;whiteSpace=wrap;html=1;" parent="1" vertex="1">
          <mxGeometry x="20" y="980" width="145" height="80" as="geometry" />
        </mxCell>
        <mxCell id="fpTIzd-TrJ-mVMYmcjgI-3" style="edgeStyle=orthogonalEdgeStyle;rounded=0;orthogonalLoop=1;jettySize=auto;html=1;exitX=0.5;exitY=1;exitDx=0;exitDy=0;entryX=0;entryY=0.75;entryDx=0;entryDy=0;" edge="1" parent="1" source="fSCc1zrQL3JDsU1CtgY6-53" target="fSCc1zrQL3JDsU1CtgY6-5">
          <mxGeometry relative="1" as="geometry" />
        </mxCell>
        <mxCell id="fSCc1zrQL3JDsU1CtgY6-53" value="&lt;b&gt;&lt;font style=&quot;font-size: 18px;&quot;&gt;pertenece&lt;/font&gt;&lt;/b&gt;" style="rhombus;whiteSpace=wrap;html=1;rounded=0;" parent="1" vertex="1">
          <mxGeometry x="370" y="560" width="100" height="90" as="geometry" />
        </mxCell>
        <mxCell id="fSCc1zrQL3JDsU1CtgY6-56" value="&lt;font style=&quot;font-size: 14px;&quot;&gt;&lt;b&gt;&lt;u&gt;kit_parent_id&lt;/u&gt;&lt;/b&gt;&lt;/font&gt;" style="ellipse;whiteSpace=wrap;html=1;" parent="1" vertex="1">
          <mxGeometry x="337.5" y="760" width="137.5" height="80" as="geometry" />
        </mxCell>
        <mxCell id="fSCc1zrQL3JDsU1CtgY6-57" value="&lt;font style=&quot;font-size: 14px;&quot;&gt;&lt;u style=&quot;&quot;&gt;&lt;b&gt;parts&lt;/b&gt;&lt;/u&gt;&lt;/font&gt;" style="ellipse;whiteSpace=wrap;html=1;" parent="1" vertex="1">
          <mxGeometry x="332.5" y="870" width="137.5" height="80" as="geometry" />
        </mxCell>
        <mxCell id="fSCc1zrQL3JDsU1CtgY6-62" value="&lt;font style=&quot;font-size: 18px;&quot;&gt;1&lt;/font&gt;" style="text;html=1;align=center;verticalAlign=middle;resizable=0;points=[];autosize=1;strokeColor=none;fillColor=none;" parent="1" vertex="1">
          <mxGeometry x="395" y="183" width="30" height="40" as="geometry" />
        </mxCell>
        <mxCell id="fSCc1zrQL3JDsU1CtgY6-63" value="&lt;font style=&quot;font-size: 18px;&quot;&gt;*&lt;/font&gt;" style="text;html=1;align=center;verticalAlign=middle;resizable=0;points=[];autosize=1;strokeColor=none;fillColor=none;" parent="1" vertex="1">
          <mxGeometry x="500" y="310" width="30" height="40" as="geometry" />
        </mxCell>
        <mxCell id="fSCc1zrQL3JDsU1CtgY6-67" style="edgeStyle=orthogonalEdgeStyle;rounded=0;orthogonalLoop=1;jettySize=auto;html=1;exitX=0.5;exitY=0;exitDx=0;exitDy=0;entryX=0.25;entryY=0;entryDx=0;entryDy=0;" parent="1" source="fSCc1zrQL3JDsU1CtgY6-64" target="fSCc1zrQL3JDsU1CtgY6-4" edge="1">
          <mxGeometry relative="1" as="geometry" />
        </mxCell>
        <mxCell id="fSCc1zrQL3JDsU1CtgY6-64" value="&lt;b&gt;&lt;font style=&quot;font-size: 18px;&quot;&gt;pertenece&lt;/font&gt;&lt;/b&gt;" style="rhombus;whiteSpace=wrap;html=1;rounded=0;" parent="1" vertex="1">
          <mxGeometry x="420" y="60" width="110" height="90" as="geometry" />
        </mxCell>
        <mxCell id="fSCc1zrQL3JDsU1CtgY6-66" value="&lt;b&gt;&lt;font style=&quot;font-size: 14px;&quot;&gt;hijo&lt;/font&gt;&lt;/b&gt;" style="text;html=1;align=center;verticalAlign=middle;resizable=0;points=[];autosize=1;strokeColor=none;fillColor=none;" parent="1" vertex="1">
          <mxGeometry x="475" y="188" width="50" height="30" as="geometry" />
        </mxCell>
        <mxCell id="fSCc1zrQL3JDsU1CtgY6-68" value="&lt;b&gt;&lt;font style=&quot;font-size: 14px;&quot;&gt;padre&lt;/font&gt;&lt;/b&gt;" style="text;html=1;align=center;verticalAlign=middle;resizable=0;points=[];autosize=1;strokeColor=none;fillColor=none;" parent="1" vertex="1">
          <mxGeometry x="510" y="18" width="60" height="30" as="geometry" />
        </mxCell>
        <mxCell id="fSCc1zrQL3JDsU1CtgY6-69" value="&lt;font style=&quot;font-size: 14px;&quot;&gt;&lt;b&gt;internal_part_id&lt;/b&gt;&lt;/font&gt;" style="ellipse;whiteSpace=wrap;html=1;" parent="1" vertex="1">
          <mxGeometry x="30" y="570" width="120" height="70" as="geometry" />
        </mxCell>
        <mxCell id="fSCc1zrQL3JDsU1CtgY6-73" value="&lt;b style=&quot;&quot;&gt;&lt;font style=&quot;font-size: 14px;&quot;&gt;internal_assembly_id&lt;/font&gt;&lt;/b&gt;" style="ellipse;whiteSpace=wrap;html=1;" parent="1" vertex="1">
          <mxGeometry x="770" y="218" width="155" height="63" as="geometry" />
        </mxCell>
        <mxCell id="fSCc1zrQL3JDsU1CtgY6-75" value="&lt;b&gt;&lt;font style=&quot;font-size: 14px;&quot;&gt;1&lt;/font&gt;&lt;/b&gt;" style="text;html=1;align=center;verticalAlign=middle;resizable=0;points=[];autosize=1;strokeColor=none;fillColor=none;" parent="1" vertex="1">
          <mxGeometry x="345" y="488" width="30" height="30" as="geometry" />
        </mxCell>
        <mxCell id="fSCc1zrQL3JDsU1CtgY6-76" value="&lt;b&gt;&lt;font style=&quot;font-size: 18px;&quot;&gt;*&lt;/font&gt;&lt;/b&gt;" style="text;html=1;align=center;verticalAlign=middle;resizable=0;points=[];autosize=1;strokeColor=none;fillColor=none;" parent="1" vertex="1">
          <mxGeometry x="425" y="690" width="30" height="40" as="geometry" />
        </mxCell>
        <mxCell id="fpTIzd-TrJ-mVMYmcjgI-4" value="&lt;b&gt;&lt;font style=&quot;font-size: 14px;&quot;&gt;1&lt;/font&gt;&lt;/b&gt;" style="text;html=1;align=center;verticalAlign=middle;resizable=0;points=[];autosize=1;strokeColor=none;fillColor=none;" vertex="1" parent="1">
          <mxGeometry x="315" y="580" width="30" height="30" as="geometry" />
        </mxCell>
        <mxCell id="fpTIzd-TrJ-mVMYmcjgI-5" value="&lt;b&gt;&lt;font style=&quot;font-size: 18px;&quot;&gt;*&lt;/font&gt;&lt;/b&gt;" style="text;html=1;align=center;verticalAlign=middle;resizable=0;points=[];autosize=1;strokeColor=none;fillColor=none;" vertex="1" parent="1">
          <mxGeometry x="565" y="443" width="30" height="40" as="geometry" />
        </mxCell>
      </root>
    </mxGraphModel>
  </diagram>
</mxfile>
